<svg xmlns="http://www.w3.org/2000/svg" xmlns:xlink="http://www.w3.org/1999/xlink" version="1.1" viewBox="60 90.4 570.02 539.67"><defs><linearGradient id="linear0" x1="9.989" x2="30.932" y1="22.365" y2="9.375" gradientTransform="matrix(15,0,0,15,0,0)" gradientUnits="userSpaceOnUse"><stop offset="0" style="stop-color:#20a7fa;stop-opacity:1"/><stop offset=".4" style="stop-color:#3bd5ff;stop-opacity:1"/><stop offset="1" style="stop-color:#c4b0ff;stop-opacity:1"/></linearGradient><linearGradient id="linear1" x1="17.197" x2="28.856" y1="26.794" y2="8.126" gradientTransform="matrix(15,0,0,15,0,0)" gradientUnits="userSpaceOnUse"><stop offset="0" style="stop-color:#165ad9;stop-opacity:1"/><stop offset=".501" style="stop-color:#1880e5;stop-opacity:1"/><stop offset="1" style="stop-color:#8587ff;stop-opacity:1"/></linearGradient><linearGradient id="linear2" x1="25.701" x2="12.756" y1="27.048" y2="16.501" gradientTransform="matrix(15,0,0,15,0,0)" gradientUnits="userSpaceOnUse"><stop offset=".237" style="stop-color:#448aff;stop-opacity:0"/><stop offset=".792" style="stop-color:#0032b1;stop-opacity:.2"/></linearGradient><linearGradient id="linear3" x1="24.053" x2="44.51" y1="31.11" y2="18.018" gradientTransform="matrix(15,0,0,15,0,0)" gradientUnits="userSpaceOnUse"><stop offset="0" style="stop-color:#1a43a6;stop-opacity:1"/><stop offset=".492" style="stop-color:#2052cb;stop-opacity:1"/><stop offset="1" style="stop-color:#5f20cb;stop-opacity:1"/></linearGradient><linearGradient id="linear4" x1="29.828" x2="17.397" y1="30.327" y2="19.571" gradientTransform="matrix(15,0,0,15,0,0)" gradientUnits="userSpaceOnUse"><stop offset="0" style="stop-color:#0045b9;stop-opacity:0"/><stop offset=".67" style="stop-color:#0d1f69;stop-opacity:.2"/></linearGradient><radialGradient id="radial0" cx="0" cy="0" r="1" fx="0" fy="0" gradientTransform="matrix(0.000000000000024802,-405.040512,438.393002,0.000000000000026844,360.027008,102.268202)" gradientUnits="userSpaceOnUse"><stop offset=".568" style="stop-color:#275ff0;stop-opacity:0"/><stop offset=".992" style="stop-color:#002177;stop-opacity:1"/></radialGradient><linearGradient id="linear5" x1="41.998" x2="23.852" y1="29.943" y2="29.943" gradientTransform="matrix(15,0,0,15,0,0)" gradientUnits="userSpaceOnUse"><stop offset="0" style="stop-color:#4dc4ff;stop-opacity:1"/><stop offset=".196" style="stop-color:#0fafff;stop-opacity:1"/></linearGradient><radialGradient id="radial1" cx="0" cy="0" r="1" fx="0" fy="0" gradientTransform="matrix(122.73959,-122.73959,122.73959,122.73959,421.392002,568.675518)" gradientUnits="userSpaceOnUse"><stop offset=".259" style="stop-color:#0060d1;stop-opacity:.4"/><stop offset=".908" style="stop-color:#0383f1;stop-opacity:0"/></radialGradient><radialGradient id="radial2" cx="0" cy="0" r="1" fx="0" fy="0" gradientTransform="matrix(357.407022,-468.445926,423.594568,323.187085,159.471002,697.080002)" gradientUnits="userSpaceOnUse"><stop offset=".732" style="stop-color:#f4a7f7;stop-opacity:0"/><stop offset="1" style="stop-color:#f4a7f7;stop-opacity:.501961"/></radialGradient><radialGradient id="radial3" cx="0" cy="0" r="1" fx="0" fy="0" gradientTransform="matrix(-170.860868,259.725406,-674.018133,-443.404152,278.562012,412.978506)" gradientUnits="userSpaceOnUse"><stop offset="0" style="stop-color:#49deff;stop-opacity:1"/><stop offset=".724" style="stop-color:#29c3ff;stop-opacity:1"/></radialGradient><linearGradient id="linear6" x1="3.458" x2="20.929" y1="37.872" y2="37.86" gradientTransform="matrix(15,0,0,15,0,0)" gradientUnits="userSpaceOnUse"><stop offset=".206" style="stop-color:#6ce0ff;stop-opacity:1"/><stop offset=".535" style="stop-color:#50d5ff;stop-opacity:0"/></linearGradient><radialGradient id="radial4" cx="0" cy="0" r="1" fx="0" fy="0" gradientTransform="matrix(215.76719,230.769125,-230.769125,215.76719,59.143649,354.231005)" gradientUnits="userSpaceOnUse"><stop offset=".039" style="stop-color:#0091ff;stop-opacity:1"/><stop offset=".919" style="stop-color:#183dad;stop-opacity:1"/></radialGradient><radialGradient id="radial5" cx="0" cy="0" r="1" fx="0" fy="0" gradientTransform="matrix(0.000000000000010287,167.999997,-193.782005,0.000000000000011866,180,491.158504)" gradientUnits="userSpaceOnUse"><stop offset=".558" style="stop-color:#0fa5f7;stop-opacity:0"/><stop offset="1" style="stop-color:#74c6ff;stop-opacity:.501961"/></radialGradient></defs><g id="surface1"><path style="stroke:none;fill-rule:nonzero;fill:url(#linear0)" d="M 463.984375 140.144531 L 119.636719 358.414062 L 90.023438 311.695312 L 90.023438 271.4375 C 90.023438 256.78125 97.445312 243.121094 109.742188 235.144531 L 309.910156 105.257812 C 340.40625 85.46875 379.6875 85.464844 410.1875 105.25 Z M 463.984375 140.144531"/><path style="stroke:none;fill-rule:nonzero;fill:url(#linear1)" d="M 407.101562 103.339844 C 408.136719 103.953125 409.164062 104.59375 410.183594 105.253906 L 566.398438 206.585938 L 179.0625 452.105469 L 119.625 358.335938 L 403.894531 177.800781 C 430.820312 160.699219 432 122.230469 407.101562 103.339844 Z M 407.101562 103.339844"/><path style="stroke:none;fill-rule:nonzero;fill:url(#linear2)" d="M 407.101562 103.339844 C 408.136719 103.953125 409.164062 104.59375 410.183594 105.253906 L 566.398438 206.585938 L 179.0625 452.105469 L 119.625 358.335938 L 403.894531 177.800781 C 430.820312 160.699219 432 122.230469 407.101562 103.339844 Z M 407.101562 103.339844"/><path style="stroke:none;fill-rule:nonzero;fill:url(#linear3)" d="M 333.601562 498.988281 L 179.066406 452.109375 L 507.628906 243.835938 C 535.300781 226.296875 535.230469 185.898438 507.496094 168.457031 L 506.015625 167.527344 L 510.277344 170.175781 L 610.273438 235.042969 C 622.574219 243.019531 629.996094 256.683594 629.996094 271.34375 L 629.996094 310.304688 Z M 333.601562 498.988281"/><path style="stroke:none;fill-rule:nonzero;fill:url(#linear4)" d="M 333.601562 498.988281 L 179.066406 452.109375 L 507.628906 243.835938 C 535.300781 226.296875 535.230469 185.898438 507.496094 168.457031 L 506.015625 167.527344 L 510.277344 170.175781 L 610.273438 235.042969 C 622.574219 243.019531 629.996094 256.683594 629.996094 271.34375 L 629.996094 310.304688 Z M 333.601562 498.988281"/><path style="stroke:none;fill-rule:nonzero;fill:url(#radial0)" d="M 410.1875 105.25 C 379.6875 85.464844 340.40625 85.46875 309.90625 105.257812 L 109.742188 235.144531 C 97.445312 243.121094 90.023438 256.78125 90.023438 271.4375 L 90.023438 273.40625 C 90.507812 288.121094 98.25 301.679688 110.757812 309.566406 L 359.644531 466.476562 L 609.160156 309.804688 C 622.121094 301.667969 629.984375 287.441406 629.984375 272.140625 L 629.984375 310.308594 L 629.992188 271.34375 C 629.992188 256.683594 622.566406 243.023438 610.269531 235.042969 Z M 410.1875 105.25"/><path style="stroke:none;fill-rule:nonzero;fill:url(#linear5)" d="M 315.769531 630.050781 L 536.21875 630.050781 C 587.996094 630.050781 629.96875 588.078125 629.96875 536.300781 L 629.96875 272.140625 C 629.96875 287.441406 622.105469 301.667969 609.148438 309.804688 L 281.242188 515.695312 C 263.554688 526.804688 252.820312 546.222656 252.820312 567.109375 C 252.824219 601.871094 281.003906 630.050781 315.769531 630.050781 Z M 315.769531 630.050781"/><path style="stroke:none;fill-rule:nonzero;fill:url(#radial1)" d="M 315.769531 630.050781 L 536.21875 630.050781 C 587.996094 630.050781 629.96875 588.078125 629.96875 536.300781 L 629.96875 272.140625 C 629.96875 287.441406 622.105469 301.667969 609.148438 309.804688 L 281.242188 515.695312 C 263.554688 526.804688 252.820312 546.222656 252.820312 567.109375 C 252.824219 601.871094 281.003906 630.050781 315.769531 630.050781 Z M 315.769531 630.050781"/><path style="stroke:none;fill-rule:nonzero;fill:url(#radial2)" d="M 315.769531 630.050781 L 536.21875 630.050781 C 587.996094 630.050781 629.96875 588.078125 629.96875 536.300781 L 629.96875 272.140625 C 629.96875 287.441406 622.105469 301.667969 609.148438 309.804688 L 281.242188 515.695312 C 263.554688 526.804688 252.820312 546.222656 252.820312 567.109375 C 252.824219 601.871094 281.003906 630.050781 315.769531 630.050781 Z M 315.769531 630.050781"/><path style="stroke:none;fill-rule:nonzero;fill:url(#radial3)" d="M 405.402344 630.035156 L 183.738281 630.035156 C 131.960938 630.035156 89.988281 588.0625 89.988281 536.285156 L 89.988281 271.945312 C 89.988281 287.21875 97.824219 301.421875 110.742188 309.566406 L 438.324219 516.085938 C 456.257812 527.390625 467.132812 547.113281 467.132812 568.3125 C 467.128906 602.402344 439.492188 630.035156 405.402344 630.035156 Z M 405.402344 630.035156"/><path style="stroke:none;fill-rule:nonzero;fill:url(#linear6)" d="M 405.402344 630.035156 L 183.738281 630.035156 C 131.960938 630.035156 89.988281 588.0625 89.988281 536.285156 L 89.988281 271.945312 C 89.988281 287.21875 97.824219 301.421875 110.742188 309.566406 L 438.324219 516.085938 C 456.257812 527.390625 467.132812 547.113281 467.132812 568.3125 C 467.128906 602.402344 439.492188 630.035156 405.402344 630.035156 Z M 405.402344 630.035156"/><path style="stroke:none;fill-rule:nonzero;fill:url(#radial4)" d="M 108.75 345 L 251.25 345 C 278.175781 345 300 366.824219 300 393.75 L 300 536.25 C 300 563.175781 278.175781 585 251.25 585 L 108.75 585 C 81.824219 585 60 563.175781 60 536.25 L 60 393.75 C 60 366.824219 81.824219 345 108.75 345 Z M 108.75 345"/><path style="stroke:none;fill-rule:nonzero;fill:url(#radial5)" d="M 108.75 345 L 251.25 345 C 278.175781 345 300 366.824219 300 393.75 L 300 536.25 C 300 563.175781 278.175781 585 251.25 585 L 108.75 585 C 81.824219 585 60 563.175781 60 536.25 L 60 393.75 C 60 366.824219 81.824219 345 108.75 345 Z M 108.75 345"/><path style="stroke:none;fill-rule:nonzero;fill:#fff;fill-opacity:1" d="M 179.386719 534 C 159.539062 534 143.25 527.789062 130.511719 515.375 C 117.773438 502.960938 111.402344 486.757812 111.402344 466.769531 C 111.402344 445.660156 117.867188 428.589844 130.796875 415.550781 C 143.730469 402.515625 160.660156 396 181.59375 396 C 201.375 396 217.472656 402.238281 229.890625 414.714844 C 242.375 427.191406 248.617188 443.644531 248.617188 464.066406 C 248.617188 485.050781 242.148438 501.964844 229.21875 514.816406 C 216.351562 527.605469 199.742188 534 179.386719 534 Z M 179.960938 507.648438 C 190.777344 507.648438 199.484375 503.953125 206.078125 496.566406 C 212.671875 489.179688 215.96875 478.902344 215.96875 465.742188 C 215.96875 452.023438 212.765625 441.347656 206.367188 433.710938 C 199.964844 426.074219 191.417969 422.257812 180.730469 422.257812 C 169.71875 422.257812 160.851562 426.199219 154.132812 434.082031 C 147.410156 441.90625 144.050781 452.273438 144.050781 465.183594 C 144.050781 478.285156 147.410156 488.652344 154.132812 496.285156 C 160.851562 503.859375 169.460938 507.648438 179.960938 507.648438 Z M 179.960938 507.648438"/><path style="stroke:none;fill-rule:nonzero;fill:#fff;fill-opacity:1" d="M 179.332031 535.847656 C 159.5625 535.847656 143.332031 529.472656 130.640625 516.71875 C 117.953125 503.964844 111.605469 487.320312 111.605469 466.789062 C 111.605469 445.105469 118.046875 427.570312 130.929688 414.179688 C 143.8125 400.785156 160.679688 394.089844 181.53125 394.089844 C 201.234375 394.089844 217.273438 400.5 229.644531 413.316406 C 242.082031 426.136719 248.296875 443.035156 248.296875 464.015625 C 248.296875 485.566406 241.855469 502.945312 228.976562 516.144531 C 216.15625 529.28125 199.609375 535.847656 179.332031 535.847656 Z M 179.902344 508.78125 C 190.679688 508.78125 199.355469 504.984375 205.921875 497.398438 C 212.492188 489.808594 215.773438 479.253906 215.773438 465.734375 C 215.773438 451.640625 212.585938 440.675781 206.210938 432.832031 C 199.832031 424.988281 191.320312 421.066406 180.671875 421.066406 C 169.699219 421.066406 160.867188 425.113281 154.171875 433.214844 C 147.476562 441.246094 144.128906 451.898438 144.128906 465.160156 C 144.128906 478.617188 147.476562 489.265625 154.171875 497.109375 C 160.867188 504.890625 169.445312 508.78125 179.902344 508.78125 Z M 179.902344 508.78125"/></g></svg>