<svg xmlns="http://www.w3.org/2000/svg" xmlns:xlink="http://www.w3.org/1999/xlink" width="200" height="200" version="1.1" viewBox="0 0 8.53 8.53" xml:space="preserve" style="shape-rendering:geometricPrecision;text-rendering:geometricPrecision;image-rendering:optimizeQuality;fill-rule:evenodd;clip-rule:evenodd"><defs><style type="text/css">.fil0{fill:none}.fil7{fill:#007400}.fil6{fill:#017901}.fil5{fill:#107b10}.fil3{fill:#3c3c41}.fil12{fill:#439043}.fil10{fill:#5ea05e}.fil8{fill:#6ea76e}.fil9{fill:#78ac78}.fil11{fill:#94bc94}.fil13{fill:#b9b9bb}.fil2{fill:#d2d2d2}.fil1{fill:#feb900}.fil4{fill:#ffdc80}</style></defs><g id="Layer_x0020_1"><metadata id="CorelCorpID_0Corel-Layer"/><g id="_2075241592848"><rect width="8.53" height="8.53" class="fil0"/><g><path d="M1.74 1.57c0.26,-0.2 0.37,-0.27 0.77,-0.35 1.81,-0.4 3.75,0.46 1.87,0.85 -0.64,0.13 -1.36,0.13 -1.99,-0.03 -0.24,-0.07 -0.65,-0.17 -0.65,-0.47zm1.92 2.92l0.13 0.11c0.07,-0.07 0.03,0.02 0.05,-0.12 0,-0.01 0,-0.11 0,-0.12l0 -1.95c0.18,-0.04 0.39,-0.04 0.58,-0.08 0.16,-0.04 0.38,-0.13 0.51,-0.14l-0.01 1.9c0.32,0.1 0.4,0.44 0.49,0.55 0.03,-0.74 0.01,-2.1 0,-2.94 0,-0.32 -0.18,-0.45 -0.42,-0.57 -0.81,-0.38 -2.52,-0.39 -3.24,0.09 -0.24,0.17 -0.28,0.3 -0.28,0.67l0 2.96c0,0.38 0.08,0.5 0.32,0.65 0.19,0.11 0.48,0.2 0.74,0.26 0.59,0.12 1.2,0.11 1.82,0 -0.58,-0.26 -0.85,-0.46 -0.69,-1.27z" class="fil1"/><path d="M1.74 1.57c0,0.3 0.41,0.4 0.65,0.47 0.63,0.16 1.35,0.16 1.99,0.03 1.88,-0.39 -0.06,-1.25 -1.87,-0.85 -0.4,0.08 -0.51,0.15 -0.77,0.35z" class="fil2"/><path d="M5.81 6.23c0.25,-0.15 0.23,-0.41 0.33,-0.52 0.08,-0.1 0.14,-0.09 0.3,-0.14 0.15,-0.05 1.03,-0.96 1.06,-1.04l-0.61 -0.53c-0.19,0.29 -0.58,0.59 -0.83,0.83 -0.2,0.18 -0.15,0.11 -0.18,0.26 -0.08,0.39 -0.3,0.29 -0.45,0.37 -0.08,0.05 -0.13,0.14 -0.21,0.19 0.07,0.09 0.12,0.11 0.2,0.21 -0.07,0.07 -0.12,0.15 -0.2,0.22 -0.2,0.19 -0.48,0.41 -0.63,0.6 -0.3,0.38 -0.15,-0.12 -0.63,0.6 -0.13,0.2 -0.13,0.19 -0.09,0.24 0.09,0.09 0.16,0 0.28,-0.08 0.27,-0.18 0.3,-0.12 0.43,-0.38 0.04,-0.08 0.09,-0.12 0.17,-0.19l0.4 -0.43c0.13,-0.13 0.28,-0.32 0.44,-0.41l0.22 0.2z" class="fil3"/><path d="M3.79 4.6c0.37,0.3 0.25,0.5 0.75,0.31l0.1 -0.31c-0.15,-0.25 -0.39,-0.36 -0.53,-0.56 0.24,-0.04 0.6,-0.13 0.81,0.05l0.01 -1.9c-0.13,0.01 -0.35,0.1 -0.51,0.14 -0.19,0.04 -0.4,0.04 -0.58,0.08l0 1.95c0,0.01 0,0.11 0,0.12 -0.02,0.14 0.02,0.05 -0.05,0.12z" class="fil4"/><path d="M4.31 4.15l0.44 0.39 -0.13 0.45 -0.45 0.1 -0.46 -0.42c-0.08,0.47 0.15,0.78 0.46,0.92 0.27,0.11 0.52,0.02 0.6,0.05 0.11,0.05 0.23,0.25 0.36,0.31l0.09 -0.07c-0.05,-0.12 -0.11,-0.14 -0.19,-0.23 0.04,-0.07 0.03,-0.06 0.09,-0.13l0.24 -0.2c0.14,-0.07 0.08,0.03 0.11,-0.04 0,0 0.01,0 0.02,0 -0.16,-0.23 -0.2,-0.09 -0.18,-0.37 0.04,-0.57 -0.39,-0.83 -0.95,-0.84 -0.06,0.03 -0.01,0 -0.05,0.08z" class="fil3"/><path d="M5.84 6.42c-0.17,-0.08 -0.23,-0.27 -0.3,-0.14 -0.03,0.04 -0.02,0 -0.01,0.07 0,0.04 0.05,0.08 0.08,0.11 0.3,0.27 0.76,0.69 1.02,0.98 0.22,0.25 0.7,0.13 0.69,-0.25 -0.01,-0.31 -0.67,-0.73 -1.1,-1.24 -0.01,0.01 -0.01,0.02 -0.02,0.02 -0.11,0.23 -0.1,0.17 -0.36,0.45z" class="fil3"/><polygon points=".85 7.67 1.09 7.67 1.1 7.42 .84 7.42" class="fil5"/><polygon points="7.43 1.1 7.68 1.1 7.68 .85 7.44 .85" class="fil5"/><polygon points=".84 6.82 1.07 6.83 1.07 6.57 .84 6.57" class="fil5"/><polygon points="7.45 2.39 7.59 2.38 7.68 2.38 7.68 2.26 7.68 2.13 7.45 2.13" class="fil5"/><polygon points=".84 7.25 1.07 7.25 1.07 7 .84 7" class="fil5"/><polygon points="7.45 1.53 7.5 1.53 7.68 1.53 7.68 1.4 7.68 1.27 7.45 1.27" class="fil5"/><polygon points=".84 6.4 1.07 6.4 1.07 6.14 .85 6.14" class="fil5"/><polygon points="7.45 1.96 7.68 1.96 7.68 1.83 7.68 1.7 7.45 1.7" class="fil5"/><polygon points="1.28 7.67 1.52 7.67 1.51 7.45 1.27 7.45" class="fil5"/><path d="M7.22 0.91l0 0.12 -0.19 0 0 -0.12 0.19 0zm-0.22 0.17l0.26 0 -0.01 -0.23 -0.24 0 -0.01 0.23z" class="fil6"/><path d="M1.89 7.49l0 0.13 -0.15 0 0 -0.13 0.15 0zm-0.2 0.17l0.24 0 0.01 -0.19 -0.24 0 -0.01 0.19z" class="fil6"/><path d="M2.17 7.49l0.15 0 0 0.13 -0.15 0 0 -0.13zm-0.03 0.17l0.21 0 0 -0.2 -0.21 0.01 0 0.19z" class="fil6"/><path d="M6.79 0.91l0 0.12 -0.16 0 0 -0.12 0.16 0zm-0.19 0.15l0.22 0 -0.01 -0.19 -0.21 0.01 0 0.18z" class="fil6"/><polygon points="7.03 1.03 7.22 1.03 7.22 .91 7.03 .91" class="fil5"/><path d="M6.36 0.9l0 0.13 -0.16 0 0 -0.13 0.16 0zm-0.19 0.16l0.22 0 -0.01 -0.2 -0.21 0 0 0.2z" class="fil7"/><path d="M2.14 7.47l0.21 -0.01 0 0.2 -0.21 0 0 -0.19zm-0.03 0.22l0.27 -0.02 -0.01 -0.23 -0.26 0 0 0.25z" class="fil8"/><path d="M6.17 0.86l0.21 0 0.01 0.2 -0.22 0 0 -0.2zm-0.02 0.22l0.26 0.01 0.01 -0.24 -0.27 -0.01 0 0.24z" class="fil9"/><polygon points="6.2 1.03 6.36 1.03 6.36 .9 6.2 .9" class="fil5"/><polygon points="2.32 7.62 2.32 7.49 2.17 7.49 2.17 7.62" class="fil5"/><polygon points="1.74 7.62 1.89 7.62 1.89 7.49 1.74 7.49" class="fil5"/><polygon points="6.63 1.03 6.79 1.03 6.79 .91 6.63 .91" class="fil5"/><path d="M1.69 7.66c0.1,0.04 0.16,0.03 0.27,0.02l-0.01 -0.24c-0.16,0 -0.16,-0.02 -0.25,0.03l0.24 0 -0.01 0.19 -0.24 0z" class="fil10"/><path d="M6.6 1.06l-0.03 0c0.05,0.06 0.18,0.04 0.26,0.01 0.01,-0.04 0.02,-0.06 0.02,-0.1 -0.01,-0.14 0,-0.08 -0.04,-0.12l0 0.02 0.01 0.19 -0.22 0z" class="fil11"/><polygon points="6.57 1.06 6.6 1.06 6.6 .88 6.81 .87 6.81 .85 6.58 .85" class="fil12"/><path d="M4.31 4.15c0.04,-0.08 -0.01,-0.05 0.05,-0.08l-0.06 0.01 0.01 0.07z" class="fil13"/></g></g></g></svg>