<svg xmlns="http://www.w3.org/2000/svg" xmlns:svg="http://www.w3.org/2000/svg" id="svg171" width="541.041" height="394.311" version="1.2" viewBox="0 0 541.041 394.311"><title id="title1">Open-source-virtualization-stack</title><style id="style1">tspan{white-space:pre}.t1{font-size:16px;fill:#000;font-weight:700;font-family:&quot;Unageo-Bold&quot;,&quot;Unageo&quot;}.s8{fill:#fff}</style><g id="Hardware" transform="translate(-44.959351,10.311069)"><rect style="fill:#c8c8c8;fill-opacity:1;stroke-width:3.42257" id="rect188-2-0" width="541.041" height="60.038" x="44.959" y="323.962" ry="17.791"/><text id="Hardware_Layer_Text" x="63.743" y="359.493"><tspan id="tspan1" x="63.743" y="359.493" class="t1">H</tspan><tspan id="tspan2" y="359.493" class="t1">a</tspan><tspan id="tspan3" y="359.493" class="t1">r</tspan><tspan id="tspan4" y="359.493" class="t1">d</tspan><tspan id="tspan5" y="359.493" class="t1">w</tspan><tspan id="tspan6" y="359.493" class="t1">a</tspan><tspan id="tspan7" y="359.493" class="t1">r</tspan><tspan id="tspan8" y="359.493" class="t1">e</tspan></text><g id="Hardware_Layer_Children"><g id="Device_1" transform="translate(80,1.0017452)"><rect style="fill:#f99b0f;fill-opacity:1;stroke-width:1.24488" id="rect188-8" width="108.453" height="39.625" x="389.181" y="333.167" ry="11.742"/><text id="text33" x="413.583" y="357.908" style="font-style:normal;font-variant:normal;font-weight:700;font-stretch:normal;font-size:16px;font-family:Unageo;-inkscape-font-specification:'Unageo, Bold';font-variant-ligatures:normal;font-variant-caps:normal;font-variant-numeric:normal;font-variant-east-asian:normal;fill:#fff;fill-opacity:1;stroke:none;stroke-opacity:1"><tspan id="tspan200" x="413.583" y="357.908">Devices</tspan></text></g><g id="Device_1-5" transform="translate(-31.607138,1.0017452)"><rect style="fill:#f99b0f;fill-opacity:1;stroke-width:1.24488" id="rect188-8-0" width="108.453" height="39.625" x="388.523" y="333.167" ry="11.742"/><text id="text33-6" x="407.374" y="357.908" style="font-style:normal;font-variant:normal;font-weight:700;font-stretch:normal;font-size:16px;font-family:Unageo;-inkscape-font-specification:'Unageo, Bold';font-variant-ligatures:normal;font-variant-caps:normal;font-variant-numeric:normal;font-variant-east-asian:normal;fill:#fff;fill-opacity:1;stroke:none;stroke-opacity:1"><tspan id="tspan201" x="407.374" y="357.908">HDD/SSD</tspan></text></g><g id="Device_1-5-6" transform="translate(-143.87266,1.001745)"><rect style="fill:#f99b0f;fill-opacity:1;stroke-width:1.03229" id="rect188-8-0-2" width="74.574" height="39.625" x="422.402" y="333.167" ry="11.742"/><text id="text33-6-5" x="442.393" y="358.579" style="font-style:normal;font-variant:normal;font-weight:700;font-stretch:normal;font-size:16px;font-family:Unageo;-inkscape-font-specification:'Unageo, Bold';font-variant-ligatures:normal;font-variant-caps:normal;font-variant-numeric:normal;font-variant-east-asian:normal;fill:#fff;fill-opacity:1;stroke:none;stroke-opacity:1"><tspan id="tspan203" x="442.393" y="358.579">RAM</tspan></text></g><g id="Device_1-5-6-6" transform="translate(-242.93787,1.363287)"><rect style="fill:#f99b0f;fill-opacity:1;stroke-width:1.03229" id="rect188-8-0-2-7" width="74.574" height="39.625" x="443.081" y="332.805" ry="11.742"/><text id="text33-6-5-8" x="464.824" y="358.217" style="font-style:normal;font-variant:normal;font-weight:700;font-stretch:normal;font-size:16px;font-family:Unageo;-inkscape-font-specification:'Unageo, Bold';font-variant-ligatures:normal;font-variant-caps:normal;font-variant-numeric:normal;font-variant-east-asian:normal;fill:#fff;fill-opacity:1;stroke:none;stroke-opacity:1"><tspan id="tspan202" x="464.824" y="358.217">CPU</tspan></text></g></g><g id="Arrows" transform="translate(60,-10.314655)"><path id="Arrow_7" fill-rule="evenodd" d="m 266.57968,306.38322 c -0.6,-0.7 -1.6,-0.7 -2.2,0 l -6.2,6.2 c -0.6,0.6 -0.6,1.6 0,2.2 0.6,0.6 1.6,0.6 2.2,0 l 3.5,-3.6 v 18 c 0,0.9 0.7,1.5 1.6,1.5 0.8,0 1.5,-0.6 1.5,-1.5 v -18 l 3.6,3.6 c 0.6,0.6 1.6,0.6 2.2,0 0.6,-0.6 0.6,-1.6 0,-2.2 0,0 -6.2,-6.2 -6.2,-6.2 z" class="s8" style="fill:#999"/><path id="Arrow_6" fill-rule="evenodd" d="m 244.37968,330.28322 c 0.6,0.6 1.6,0.6 2.2,0 l 6.2,-6.2 c 0.6,-0.6 0.6,-1.6 0,-2.2 -0.6,-0.6 -1.6,-0.6 -2.2,0 l -3.6,3.5 v -17.9 c 0,-0.9 -0.7,-1.6 -1.5,-1.6 -0.9,0 -1.6,0.7 -1.6,1.6 v 17.9 l -3.5,-3.5 c -0.6,-0.6 -1.6,-0.6 -2.2,0 -0.6,0.6 -0.6,1.6 0,2.2 z" class="s8" style="fill:#999"/></g></g><g id="Linux_Kernel" transform="translate(-44.959351,-0.00358646)"><rect style="fill:#c8c8c8;fill-opacity:1;stroke-width:3.42257" id="rect188-2" width="541.041" height="60.038" x="44.959" y="242.028" ry="17.791"/><text id="Kernel_Layer_Text" x="63.743" y="277.831" style="font-style:normal;font-variant:normal;font-weight:700;font-stretch:normal;font-size:16px;font-family:Unageo;-inkscape-font-specification:'Unageo, Bold';font-variant-ligatures:normal;font-variant-caps:normal;font-variant-numeric:normal;font-variant-east-asian:normal"><tspan id="tspan179" x="63.743" y="277.831">Linux Kernel</tspan></text><g id="KVM"><rect style="fill:#ce3b3b;fill-opacity:1;stroke-width:2.23071" id="rect188-2-1" width="313.581" height="44.004" x="264.053" y="250.07" ry="13.039"/><text id="KVM_Text" x="360.412" y="276.255" style="font-style:normal;font-variant:normal;font-weight:700;font-stretch:normal;font-size:16px;font-family:Unageo;-inkscape-font-specification:'Unageo, Bold';font-variant-ligatures:normal;font-variant-caps:normal;font-variant-numeric:normal;font-variant-east-asian:normal;fill:#fff;fill-opacity:1"><tspan id="tspan187" x="360.412" y="276.255">KVM Hypervisor</tspan></text></g><g id="g206" transform="translate(60)"><path id="Arrow_5" fill-rule="evenodd" d="m 370.37233,213.93929 c -0.6,-0.7 -1.6,-0.7 -2.2,0 l -6.2,6.2 c -0.6,0.6 -0.6,1.6 0,2.2 0.6,0.6 1.6,0.6 2.2,0 l 3.5,-3.6 v 18 c 0,0.9 0.7,1.5 1.6,1.5 0.8,0 1.5,-0.6 1.5,-1.5 v -18 l 3.6,3.6 c 0.6,0.6 1.6,0.6 2.2,0 0.6,-0.6 0.6,-1.6 0,-2.2 0,0 -6.2,-6.2 -6.2,-6.2 z" class="s8" style="fill:#999"/><path id="Arrow_4" fill-rule="evenodd" d="m 348.17233,237.83929 c 0.6,0.6 1.6,0.6 2.2,0 l 6.2,-6.2 c 0.6,-0.6 0.6,-1.6 0,-2.2 -0.6,-0.6 -1.6,-0.6 -2.2,0 l -3.6,3.5 v -17.9 c 0,-0.9 -0.7,-1.6 -1.5,-1.6 -0.9,0 -1.6,0.7 -1.6,1.6 v 17.9 l -3.5,-3.5 c -0.6,-0.6 -1.6,-0.6 -2.2,0 -0.6,0.6 -0.6,1.6 0,2.2 0,0 6.2,6.2 6.2,6.2 z" class="s8" style="fill:#999"/></g></g><g id="GNU/Linux_Applications" transform="translate(15.046545,-0.00120841)"><g id="QEMU" transform="matrix(1.0004025,0,0,1,-52.024771,-0.03358027)"><rect style="fill:#772953;fill-opacity:1;stroke-width:5.03902" id="rect188-1-2-8-6" width="335.353" height="209.963" x="242.429" y=".035" ry="21.214"/><g id="VM_1" transform="translate(-8.9179688)"><rect style="fill:#fff;fill-opacity:1;stroke:#c8c8c8;stroke-width:3.9992;stroke-linecap:round;stroke-linejoin:round;stroke-dasharray:none;stroke-dashoffset:0;stroke-opacity:1;paint-order:stroke fill markers" id="rect194" width="310.601" height="162.154" x="263.723" y="36.054" ry="22.935"/><g id="VM_Kernel" transform="translate(1.3399048,-2)"><rect style="fill:#c8c8c8;fill-opacity:1;stroke-width:1.94504" id="rect188-1-2-8" width="287.919" height="36.437" x="273.724" y="152.905" ry="10.797"/><text id="VM_Kernel_text" x="380.619" y="176.627" style="font-style:normal;font-variant:normal;font-weight:700;font-stretch:normal;font-size:15.9968px;font-family:Unageo;-inkscape-font-specification:'Unageo, Bold';font-variant-ligatures:normal;font-variant-caps:normal;font-variant-numeric:normal;font-variant-east-asian:normal;fill:#000;fill-opacity:1"><tspan id="tspan174" x="380.619" y="176.627">VM Kernel</tspan></text></g><g id="VM_Kernel-9" transform="matrix(1.0004025,0,0,1,40.454492,92.64688)"><rect style="fill:#e95420;fill-opacity:1;stroke-width:1.94465" id="rect188-1-2" width="287.803" height="36.437" x="234.515" y="18.651" ry="10.797"/><text id="VM_Kernel_text-6" x="328.369" y="42.653" style="font-style:normal;font-variant:normal;font-weight:700;font-stretch:normal;font-size:15.9968px;font-family:Unageo;-inkscape-font-specification:'Unageo, Bold';font-variant-ligatures:normal;font-variant-caps:normal;font-variant-numeric:normal;font-variant-east-asian:normal;fill:#fff;fill-opacity:1"><tspan id="tspan177" x="328.369" y="42.653">VirtIO Drivers</tspan></text></g><g id="VM_Applications-4" transform="translate(204.88644,-6.0165224)"><rect style="fill:#772953;fill-opacity:1;stroke-width:1.46467" id="rect188-1-2-9-3" width="163.265" height="36.437" x="194.832" y="78.044" ry="10.797"/><text id="VM_Applications_Text-7" x="204.879" y="100.246" style="font-style:normal;font-variant:normal;font-weight:700;font-stretch:normal;font-size:15.9968px;font-family:Unageo;-inkscape-font-specification:'Unageo, Bold';font-variant-ligatures:normal;font-variant-caps:normal;font-variant-numeric:normal;font-variant-east-asian:normal;fill:#fff;fill-opacity:1"><tspan id="tspan185" x="204.879" y="100.246">QEMU Guest Agent</tspan></text></g><g id="VM_Applications" transform="translate(81.826784,-5.6741752)"><rect style="fill:#772953;fill-opacity:1;stroke-width:1.26836" id="rect188-1-2-9" width="122.434" height="36.437" x="193.238" y="77.758" ry="10.797"/><text id="VM_Applications_Text" x="209.375" y="100.255" style="font-style:normal;font-variant:normal;font-weight:700;font-stretch:normal;font-size:15.9968px;font-family:Unageo;-inkscape-font-specification:'Unageo, Bold';font-variant-ligatures:normal;font-variant-caps:normal;font-variant-numeric:normal;font-variant-east-asian:normal;fill:#fff;fill-opacity:1"><tspan id="tspan186" x="209.375" y="100.255">Applications</tspan></text></g><text id="VM_Box_Text" x="342.207" y="59.875" style="font-style:normal;font-variant:normal;font-weight:700;font-stretch:normal;font-size:15.9968px;font-family:Unageo;-inkscape-font-specification:'Unageo, Bold';font-variant-ligatures:normal;font-variant-caps:normal;font-variant-numeric:normal;font-variant-east-asian:normal;fill:#000;fill-opacity:1"><tspan id="tspan178" x="342.207" y="59.875">Windows Guest (VM)</tspan></text></g><text id="QEMU_Layer_Text" x="410.33" y="23.078" style="fill:#fff;fill-opacity:1"><tspan id="tspan127" x="387.13" y="23.078" class="t1" style="fill:#fff;fill-opacity:1">Q</tspan><tspan id="tspan128" y="23.078" class="t1" style="fill:#fff;fill-opacity:1">E</tspan><tspan id="tspan129" y="23.078" class="t1" style="fill:#fff;fill-opacity:1">M</tspan><tspan id="tspan130" y="23.078" class="t1" style="fill:#fff;fill-opacity:1">U</tspan></text></g><g id="g137" transform="translate(0,-69.931008)"><rect style="fill:#772953;fill-opacity:1;stroke-width:1.9483" id="rect188-5" width="146.373" height="71.912" x="9.462" y="192.958" ry="21.309"/><text id="libvirt" x="82.633" y="223.082" style="font-style:normal;font-variant:normal;font-weight:700;font-stretch:normal;font-size:16px;font-family:Unageo;-inkscape-font-specification:'Unageo, Bold';font-variant-ligatures:normal;font-variant-caps:normal;font-variant-numeric:normal;font-variant-east-asian:normal;fill:#fff;fill-opacity:1"><tspan id="tspan204" x="82.633" y="223.082" style="text-align:center;text-anchor:middle">libvirt +</tspan><tspan id="tspan205" x="82.633" y="243.082" style="text-align:center;text-anchor:middle">qemu-guest-agent</tspan></text></g><g id="g205"><path id="Arrow_2" fill-rule="evenodd" d="m 185.26144,170.08528 c 0.7,-0.6 0.7,-1.6 0,-2.2 l -6.2,-6.2 c -0.6,-0.6 -1.6,-0.6 -2.2,0 -0.6,0.6 -0.6,1.6 0,2.2 l 3.6,3.6 h -18 c -0.9,0 -1.5,0.7 -1.5,1.5 0,0.9 0.6,1.6 1.5,1.6 h 18 l -3.6,3.5 c -0.6,0.6 -0.6,1.6 0,2.2 0.6,0.6 1.6,0.6 2.2,0 z" class="s8" transform="translate(-0.005896,-0.00237805)" style="fill:#999"/><path id="Arrow_3" fill-rule="evenodd" d="m 161.36144,147.88528 c -0.6,0.6 -0.6,1.6 0,2.2 l 6.2,6.2 c 0.6,0.6 1.6,0.6 2.2,0 0.6,-0.6 0.6,-1.6 0,-2.2 l -3.5,-3.5 h 17.9 c 0.9,0 1.6,-0.7 1.6,-1.6 0,-0.8 -0.7,-1.5 -1.6,-1.5 h -17.9 l 3.5,-3.6 c 0.6,-0.6 0.6,-1.6 0,-2.2 -0.6,-0.6 -1.6,-0.6 -2.2,0 z" class="s8" transform="translate(-0.005896,-0.00237805)" style="fill:#999"/><path id="Arrow_0" fill-rule="evenodd" d="m 93.754521,93.097776 c -0.6,-0.7 -1.6,-0.7 -2.2,0 l -6.2,6.2 c -0.6,0.6 -0.6,1.600004 0,2.200004 0.6,0.6 1.6,0.6 2.2,0 l 3.5,-3.600004 v 18.000004 c 0,0.9 0.7,1.5 1.6,1.5 0.8,0 1.5,-0.6 1.5,-1.5 V 97.897776 l 3.6,3.600004 c 0.6,0.6 1.6,0.6 2.2,0 0.599999,-0.6 0.599999,-1.600004 0,-2.200004 0,0 -6.2,-6.2 -6.2,-6.2 z" class="s8" transform="translate(-0.005896,-0.00237805)" style="fill:#999"/><path id="Arrow_1" fill-rule="evenodd" d="m 71.554521,116.96028 c 0.6,0.6 1.6,0.6 2.2,0 l 6.2,-6.2 c 0.6,-0.6 0.6,-1.6 0,-2.2 -0.6,-0.6 -1.6,-0.6 -2.2,0 l -3.6,3.5 V 94.160276 c 0,-0.9 -0.7,-1.6 -1.5,-1.6 -0.9,0 -1.6,0.7 -1.6,1.6 v 17.900004 l -3.5,-3.5 c -0.6,-0.6 -1.6,-0.6 -2.2,0 -0.6,0.6 -0.6,1.6 0,2.2 z" class="s8" transform="translate(-0.005896,-0.00237805)" style="fill:#999"/></g><g id="g149" transform="translate(0,75.02924)"><rect style="fill:#772953;fill-opacity:1;stroke-width:1.9483" id="rect188" width="146.373" height="71.912" x="9.462" y="-60.002" ry="21.309"/><text id="virt-manager" x="35.917" y="-19.878" style="font-style:normal;font-variant:normal;font-weight:700;font-stretch:normal;font-size:16px;font-family:Unageo;-inkscape-font-specification:'Unageo, Bold';font-variant-ligatures:normal;font-variant-caps:normal;font-variant-numeric:normal;font-variant-east-asian:normal;fill:#fff;fill-opacity:1"><tspan id="tspan181" x="35.917" y="-19.878">virt-manager</tspan></text></g><text id="GNU/Linux_Applications_Text" x="-193.887" y="-3.095" transform="rotate(-90)" style="font-style:normal;font-variant:normal;font-weight:700;font-stretch:normal;font-size:16px;font-family:Unageo;-inkscape-font-specification:'Unageo, Bold';font-variant-ligatures:normal;font-variant-caps:normal;font-variant-numeric:normal;font-variant-east-asian:normal;fill:gray;fill-opacity:1"><tspan id="tspan188" x="-193.887" y="-3.095">GNU/Linux Applications</tspan></text></g><metadata id="metadata188"/></svg>