<svg xmlns="http://www.w3.org/2000/svg" xmlns:xlink="http://www.w3.org/1999/xlink" version="1.1" viewBox="60 78.75 581.25 562.5"><defs><linearGradient id="linear0" x1="22.096" x2="-.876" y1="4.056" y2="26.033" gradientTransform="matrix(15,0,0,15,0,0)" gradientUnits="userSpaceOnUse"><stop offset=".058" style="stop-color:#ff7f48;stop-opacity:1"/><stop offset="1" style="stop-color:#e5495b;stop-opacity:1"/></linearGradient><radialGradient id="radial0" cx="0" cy="0" r="1" fx="0" fy="0" gradientTransform="matrix(-399.288723,399.288723,-672.056545,-672.056545,471.141014,241.960487)" gradientUnits="userSpaceOnUse"><stop offset=".152" style="stop-color:#aa1d2d;stop-opacity:1"/><stop offset=".381" style="stop-color:#d12b18;stop-opacity:.439216"/><stop offset=".602" style="stop-color:#ff3c00;stop-opacity:0"/></radialGradient><radialGradient id="radial1" cx="0" cy="0" r="1" fx="0" fy="0" gradientTransform="matrix(484.012072,-228.617844,414.174468,876.858248,-19.41075,588.617992)" gradientUnits="userSpaceOnUse"><stop offset=".407" style="stop-color:#ff66fb;stop-opacity:.501961"/><stop offset="1" style="stop-color:#ea3d01;stop-opacity:0"/></radialGradient><linearGradient id="linear1" x1="27.549" x2="47.729" y1="28.172" y2="13.216" gradientTransform="matrix(15,0,0,15,0,0)" gradientUnits="userSpaceOnUse"><stop offset=".311" style="stop-color:#ff6e30;stop-opacity:1"/><stop offset=".635" style="stop-color:#ffa05c;stop-opacity:1"/></linearGradient><radialGradient id="radial2" cx="0" cy="0" r="1" fx="0" fy="0" gradientTransform="matrix(355.857605,74.568775,-71.089695,339.254713,312.756014,393.631496)" gradientUnits="userSpaceOnUse"><stop offset=".786" style="stop-color:#ffa05c;stop-opacity:0"/><stop offset=".905" style="stop-color:#ffce84;stop-opacity:1"/></radialGradient><radialGradient id="radial3" cx="0" cy="0" r="1" fx="0" fy="0" gradientTransform="matrix(307.211443,-201.015927,192.233827,293.789814,369.794998,355.780506)" gradientUnits="userSpaceOnUse"><stop offset=".295" style="stop-color:#ff99e9;stop-opacity:.8"/><stop offset=".728" style="stop-color:#ff99e9;stop-opacity:0"/></radialGradient><radialGradient id="radial4" cx="0" cy="0" r="1" fx="0" fy="0" gradientTransform="matrix(257.143156,-294.39511,268.864458,234.843083,328.567486,398.717995)" gradientUnits="userSpaceOnUse"><stop offset="0" style="stop-color:#fd6ef9;stop-opacity:1"/><stop offset=".637" style="stop-color:#f94;stop-opacity:1"/><stop offset=".852" style="stop-color:#fcc479;stop-opacity:1"/></radialGradient><radialGradient id="radial5" cx="0" cy="0" r="1" fx="0" fy="0" gradientTransform="matrix(-29.045837,196.819309,-444.814842,-65.644064,302.984991,115.919852)" gradientUnits="userSpaceOnUse"><stop offset=".144" style="stop-color:#ff8d13;stop-opacity:1"/><stop offset=".537" style="stop-color:#ff7f29;stop-opacity:0"/></radialGradient><radialGradient id="radial6" cx="0" cy="0" r="1" fx="0" fy="0" gradientTransform="matrix(239.999814,239.999814,-239.999814,239.999814,59.97075,345)" gradientUnits="userSpaceOnUse"><stop offset="0" style="stop-color:#f8193e;stop-opacity:1"/><stop offset=".939" style="stop-color:#920616;stop-opacity:1"/></radialGradient><radialGradient id="radial7" cx="0" cy="0" r="1" fx="0" fy="0" gradientTransform="matrix(0.000000000000010287,167.999997,-191.25,0.000000000000011711,179.970002,488.999977)" gradientUnits="userSpaceOnUse"><stop offset=".576" style="stop-color:#ffb055;stop-opacity:0"/><stop offset=".974" style="stop-color:#fff2be;stop-opacity:.301961"/></radialGradient></defs><g id="surface1"><path style="stroke:none;fill-rule:nonzero;fill:url(#linear0)" d="M 641.199219 360 C 641.199219 204.667969 515.292969 78.75 359.976562 78.75 C 204.660156 78.75 78.75 204.667969 78.75 360 C 78.75 515.332031 204.660156 641.25 359.976562 641.25 C 515.292969 641.25 641.199219 515.332031 641.199219 360 Z M 641.199219 360"/><path style="stroke:none;fill-rule:nonzero;fill:url(#radial0)" d="M 641.199219 360 C 641.199219 204.667969 515.292969 78.75 359.976562 78.75 C 204.660156 78.75 78.75 204.667969 78.75 360 C 78.75 515.332031 204.660156 641.25 359.976562 641.25 C 515.292969 641.25 641.199219 515.332031 641.199219 360 Z M 641.199219 360"/><path style="stroke:none;fill-rule:nonzero;fill:url(#radial1)" d="M 641.199219 360 C 641.199219 204.667969 515.292969 78.75 359.976562 78.75 C 204.660156 78.75 78.75 204.667969 78.75 360 C 78.75 515.332031 204.660156 641.25 359.976562 641.25 C 515.292969 641.25 641.199219 515.332031 641.199219 360 Z M 641.199219 360"/><path style="stroke:none;fill-rule:nonzero;fill:url(#linear1)" d="M 360.015625 78.75 C 515.328125 78.753906 641.234375 204.671875 641.234375 360 C 641.234375 411.671875 627.273438 460.070312 602.960938 501.679688 L 607.53125 491.558594 C 635.363281 429.761719 590.125 359.832031 522.347656 359.882812 L 410.417969 359.96875 C 382.59375 359.992188 360.015625 337.433594 360.015625 309.609375 L 360.015625 197.476562 C 360.011719 129.671875 290.003906 84.484375 228.222656 112.410156 L 219.226562 116.484375 C 260.632812 92.492188 308.71875 78.75 360.015625 78.75 Z M 360.015625 78.75"/><path style="stroke:none;fill-rule:nonzero;fill:url(#radial2)" d="M 360.015625 78.75 C 515.328125 78.753906 641.234375 204.671875 641.234375 360 C 641.234375 411.671875 627.273438 460.070312 602.960938 501.679688 L 607.53125 491.558594 C 635.363281 429.761719 590.125 359.832031 522.347656 359.882812 L 410.417969 359.96875 C 382.59375 359.992188 360.015625 337.433594 360.015625 309.609375 L 360.015625 197.476562 C 360.011719 129.671875 290.003906 84.484375 228.222656 112.410156 L 219.226562 116.484375 C 260.632812 92.492188 308.71875 78.75 360.015625 78.75 Z M 360.015625 78.75"/><path style="stroke:none;fill-rule:nonzero;fill:url(#radial3)" d="M 360.015625 78.75 C 515.328125 78.753906 641.234375 204.671875 641.234375 360 C 641.234375 411.671875 627.273438 460.070312 602.960938 501.679688 L 607.53125 491.558594 C 635.363281 429.761719 590.125 359.832031 522.347656 359.882812 L 410.417969 359.96875 C 382.59375 359.992188 360.015625 337.433594 360.015625 309.609375 L 360.015625 197.476562 C 360.011719 129.671875 290.003906 84.484375 228.222656 112.410156 L 219.226562 116.484375 C 260.632812 92.492188 308.71875 78.75 360.015625 78.75 Z M 360.015625 78.75"/><path style="stroke:none;fill-rule:nonzero;fill:url(#radial4)" d="M 360.015625 78.75 C 515.328125 78.753906 641.234375 204.671875 641.234375 360 C 641.234375 411.671875 627.273438 460.070312 602.960938 501.679688 L 607.53125 491.558594 C 635.363281 429.761719 590.125 359.832031 522.347656 359.882812 L 410.417969 359.96875 C 382.59375 359.992188 360.015625 337.433594 360.015625 309.609375 L 360.015625 197.476562 C 360.011719 129.671875 290.003906 84.484375 228.222656 112.410156 L 219.226562 116.484375 C 260.632812 92.492188 308.71875 78.75 360.015625 78.75 Z M 360.015625 78.75"/><path style="stroke:none;fill-rule:nonzero;fill:url(#radial5)" d="M 360.015625 78.75 C 515.328125 78.753906 641.234375 204.671875 641.234375 360 C 641.234375 411.671875 627.273438 460.070312 602.960938 501.679688 L 607.53125 491.558594 C 635.363281 429.761719 590.125 359.832031 522.347656 359.882812 L 410.417969 359.96875 C 382.59375 359.992188 360.015625 337.433594 360.015625 309.609375 L 360.015625 197.476562 C 360.011719 129.671875 290.003906 84.484375 228.222656 112.410156 L 219.226562 116.484375 C 260.632812 92.492188 308.71875 78.75 360.015625 78.75 Z M 360.015625 78.75"/><path style="stroke:none;fill-rule:nonzero;fill:url(#radial6)" d="M 108.75 345 L 251.25 345 C 278.175781 345 300 366.824219 300 393.75 L 300 536.25 C 300 563.175781 278.175781 585 251.25 585 L 108.75 585 C 81.824219 585 60 563.175781 60 536.25 L 60 393.75 C 60 366.824219 81.824219 345 108.75 345 Z M 108.75 345"/><path style="stroke:none;fill-rule:nonzero;fill:url(#radial7)" d="M 108.75 345 L 251.25 345 C 278.175781 345 300 366.824219 300 393.75 L 300 536.25 C 300 563.175781 278.175781 585 251.25 585 L 108.75 585 C 81.824219 585 60 563.175781 60 536.25 L 60 393.75 C 60 366.824219 81.824219 345 108.75 345 Z M 108.75 345"/><path style="stroke:none;fill-rule:nonzero;fill:#fff;fill-opacity:1" d="M 168.292969 488.90625 L 168.292969 533.570312 L 137.417969 533.570312 L 137.417969 396.425781 L 185.117188 396.425781 C 202.195312 396.425781 215.195312 400.15625 224.117188 407.617188 C 233.105469 415.074219 237.597656 426.136719 237.597656 440.800781 C 237.597656 455.914062 232.5625 467.707031 222.492188 476.1875 C 212.488281 484.667969 199.039062 488.90625 182.152344 488.90625 Z M 168.292969 420.144531 L 168.292969 465.1875 L 181.199219 465.1875 C 188.84375 465.1875 194.742188 463.183594 198.882812 459.164062 C 203.023438 455.148438 205.097656 449.378906 205.097656 441.855469 C 205.097656 434.90625 203.054688 429.550781 198.976562 425.785156 C 194.960938 422.023438 189.195312 420.144531 181.675781 420.144531 Z M 168.292969 420.144531"/></g></svg>