<svg xmlns="http://www.w3.org/2000/svg" xmlns:xlink="http://www.w3.org/1999/xlink" version="1.1" viewBox="60 90 525 540"><defs><radialGradient id="radial0" cx="0" cy="0" r="1" fx="0" fy="0" gradientTransform="matrix(713.599491,0,0,300.721493,571.881008,630)" gradientUnits="userSpaceOnUse"><stop offset=".159" style="stop-color:#a931d8;stop-opacity:1"/><stop offset=".566" style="stop-color:#6e1996;stop-opacity:1"/></radialGradient><linearGradient id="linear0" x1="45.284" x2="28.013" y1="22.752" y2="14.022" gradientTransform="matrix(15,0,0,15,0,0)" gradientUnits="userSpaceOnUse"><stop offset=".217" style="stop-color:#ca59f7;stop-opacity:1"/><stop offset=".888" style="stop-color:#691a90;stop-opacity:1"/></linearGradient><linearGradient id="linear1" x1="40.327" x2="9.007" y1="13.764" y2="13.764" gradientTransform="matrix(15,0,0,15,0,0)" gradientUnits="userSpaceOnUse"><stop offset=".807" style="stop-color:#de66ff;stop-opacity:1"/><stop offset="1" style="stop-color:#fcb1ff;stop-opacity:1"/></linearGradient><radialGradient id="radial1" cx="0" cy="0" r="1" fx="0" fy="0" gradientTransform="matrix(-226.2125,369.391196,-649.520316,-397.76155,617.366982,62.964449)" gradientUnits="userSpaceOnUse"><stop offset="0" style="stop-color:#ffc7a3;stop-opacity:1"/><stop offset=".831" style="stop-color:#de67fd;stop-opacity:0"/></radialGradient><radialGradient id="radial2" cx="0" cy="0" r="1" fx="0" fy="0" gradientTransform="matrix(239.999814,239.999814,-239.999814,239.999814,60,345)" gradientUnits="userSpaceOnUse"><stop offset=".072" style="stop-color:#ac13eb;stop-opacity:1"/><stop offset=".879" style="stop-color:#580087;stop-opacity:1"/></radialGradient><radialGradient id="radial3" cx="0" cy="0" r="1" fx="0" fy="0" gradientTransform="matrix(0.000000000000010287,167.999997,-193.499994,0.000000000000011848,180,488.999977)" gradientUnits="userSpaceOnUse"><stop offset=".585" style="stop-color:#841fb0;stop-opacity:0"/><stop offset=".969" style="stop-color:#d373fc;stop-opacity:.8"/></radialGradient></defs><g id="surface1"><path style="stroke:none;fill-rule:nonzero;fill:url(#radial0)" d="M 135 503.179688 C 135 448.957031 178.957031 405 233.183594 405 L 585 405 L 585 580.898438 C 585 608.015625 563.015625 629.996094 535.898438 629.988281 L 227.023438 629.914062 C 176.199219 629.902344 135 588.699219 135 537.871094 Z M 135 503.179688"/><path style="stroke:none;fill-rule:nonzero;fill:url(#linear0)" d="M 374.992188 217.5 L 584.992188 210 L 584.992188 400.910156 C 584.992188 428.023438 563.015625 450 535.902344 450 L 374.992188 450 Z M 374.992188 217.5"/><path style="stroke:none;fill-rule:nonzero;fill:url(#linear1)" d="M 135.078125 179.980469 C 135.085938 130.28125 175.378906 90 225.078125 90 C 327.511719 90 430.105469 90 532.5 90 C 561.496094 90 585 113.503906 585 142.5 L 585 217.5 C 585 246.496094 561.496094 270 532.5 270 L 487.5 270 C 458.503906 270 435 293.503906 435 322.5 L 435 397.5 C 435 426.496094 411.496094 450 382.5 450 L 225 450 C 175.296875 450 135 490.292969 135 540 Z M 135.078125 179.980469"/><path style="stroke:none;fill-rule:nonzero;fill:url(#radial1)" d="M 135.078125 179.980469 C 135.085938 130.28125 175.378906 90 225.078125 90 C 327.511719 90 430.105469 90 532.5 90 C 561.496094 90 585 113.503906 585 142.5 L 585 217.5 C 585 246.496094 561.496094 270 532.5 270 L 487.5 270 C 458.503906 270 435 293.503906 435 322.5 L 435 397.5 C 435 426.496094 411.496094 450 382.5 450 L 225 450 C 175.296875 450 135 490.292969 135 540 Z M 135.078125 179.980469"/><path style="stroke:none;fill-rule:nonzero;fill:url(#radial2)" d="M 108.75 345 L 251.25 345 C 278.175781 345 300 366.824219 300 393.75 L 300 536.25 C 300 563.175781 278.175781 585 251.25 585 L 108.75 585 C 81.824219 585 60 563.175781 60 536.25 L 60 393.75 C 60 366.824219 81.824219 345 108.75 345 Z M 108.75 345"/><path style="stroke:none;fill-rule:nonzero;fill:url(#radial3)" d="M 108.75 345 L 251.25 345 C 278.175781 345 300 366.824219 300 393.75 L 300 536.25 C 300 563.175781 278.175781 585 251.25 585 L 108.75 585 C 81.824219 585 60 563.175781 60 536.25 L 60 393.75 C 60 366.824219 81.824219 345 108.75 345 Z M 108.75 345"/><path style="stroke:none;fill-rule:nonzero;fill:#fff;fill-opacity:1" d="M 241.65625 533.570312 L 210.492188 533.570312 L 154 448.933594 C 152.40625 446.382812 151.066406 444.183594 149.984375 442.335938 C 148.898438 440.421875 148.070312 438.828125 147.5 437.554688 L 147.117188 437.554688 C 147.242188 439.976562 147.339844 443.035156 147.402344 446.734375 C 147.464844 450.433594 147.5 454.765625 147.5 459.738281 L 147.5 533.570312 L 118.34375 533.570312 L 118.34375 396.429688 L 151.609375 396.429688 L 206 478.390625 C 207.148438 480.238281 208.261719 482.121094 209.347656 484.03125 C 210.492188 485.882812 211.546875 487.730469 212.5 489.578125 L 212.882812 489.578125 C 212.753906 487.984375 212.660156 485.625 212.597656 482.503906 C 212.53125 479.316406 212.5 475.394531 212.5 470.738281 L 212.5 396.429688 L 241.65625 396.429688 Z M 241.65625 533.570312"/></g></svg>