<svg xmlns="http://www.w3.org/2000/svg" xmlns:xlink="http://www.w3.org/1999/xlink" id="Layer_1" x="0" y="0" version="1.1" viewBox="0 0 62.8 54.8" xml:space="preserve" style="enable-background:new 0 0 62.8 54.8"><style type="text/css">.st0{fill:#185c37}.st1{fill:#33c481}.st2{fill:#21a366}.st3,.st4{opacity:.1;enable-background:new}.st4{opacity:.2}.st5{fill:url(#SVGID_1_)}.st6{fill:#fff}</style><metadata><sfw xmlns="http://ns.adobe.com/SaveForWeb/1.0/"><slices/><sliceSourceBounds width="62.8" height="54.8" x=".5" y="4.6" bottomLeftOrigin="true"/></sfw></metadata><path d="M60.1,54.8H24.4c-1.5,0-2.7-1.2-2.7-2.7V36.5l13.7-6.8l17.1,6.8h7.6c1.5,0,2.7,1.2,2.7,2.7v12.9 C62.8,53.6,61.6,54.8,60.1,54.8z" class="st0"/><path d="M42.2,18.3l-16,5.7L8,18.3V2.7C8,1.2,9.2,0,10.7,0h28.9c1.5,0,2.7,1.2,2.7,2.7L42.2,18.3L42.2,18.3z" class="st1"/><path d="M8,18.3h41.8c1.5,0,2.7,1.2,2.7,2.7v15.6H10.7c-1.5,0-2.7-1.2-2.7-2.7V18.3z" class="st2"/><path d="M21.7,46.8h8.7c1.3,0,2.4-0.9,2.6-2.2V14.1c0-1.5-1.2-2.7-2.6-2.7H8v22.4c0,1.5,1.2,2.7,2.7,2.7h11V46.8z" class="st3"/><path d="M30.4,45.7c2.1,0,3.8-1.7,3.8-3.8V14.1c0-2.1-1.7-3.8-3.8-3.8H8v23.6c0,1.5,1.2,2.7,2.7,2.7h11v9.1 C21.7,45.7,30.4,45.7,30.4,45.7z" class="st4"/><path d="M30.4,44.5c1.5,0,2.7-1.2,2.7-2.6V14.1c0-1.5-1.2-2.7-2.6-2.7H8v22.4c0,1.5,1.2,2.7,2.7,2.7h11v8 C21.7,44.5,30.4,44.5,30.4,44.5z" class="st4"/><path d="M29.3,44.5c1.5,0,2.7-1.2,2.7-2.6V14.1c0-1.5-1.2-2.7-2.6-2.7H8v22.4c0,1.5,1.2,2.7,2.7,2.7h11v8 C21.7,44.5,29.3,44.5,29.3,44.5z" class="st3"/><linearGradient id="SVGID_1_" x1="5.564" x2="26.403" y1="2105.324" y2="2141.42" gradientTransform="matrix(1 0 0 1 0 -2096)" gradientUnits="userSpaceOnUse"><stop offset="0" style="stop-color:#18884f"/><stop offset=".5" style="stop-color:#117e43"/><stop offset="1" style="stop-color:#0b6631"/></linearGradient><path d="M2.7,11.4h26.6c1.5,0,2.7,1.2,2.7,2.7v26.6c0,1.5-1.2,2.7-2.7,2.7H2.7c-1.5,0-2.7-1.2-2.7-2.7V14.1 C0,12.6,1.2,11.4,2.7,11.4z" class="st5"/><path d="M16.5,18.5c1.7-0.1,3.4,0.4,4.7,1.4c1.1,1.1,1.7,2.6,1.6,4.1c0,1.1-0.3,2.1-0.8,3.1c-0.6,0.9-1.4,1.6-2.3,2.1 c-1.1,0.5-2.3,0.8-3.5,0.7h-3.3v6.3H9.5V18.5H16.5z M13,27.2h2.9c0.9,0.1,1.8-0.2,2.6-0.8c0.6-0.6,0.9-1.4,0.9-2.3 c0-2-1.1-2.9-3.3-2.9h-3C13.1,21.2,13,27.2,13,27.2z" class="st6"/></svg>