<svg xmlns="http://www.w3.org/2000/svg" xmlns:xlink="http://www.w3.org/1999/xlink" id="Ebene_2" data-name="Ebene 2" viewBox="0 0 192 182.85"><defs><style>.cls-1{fill:url(#Unbenannter_Verlauf_90)}.cls-2{fill:url(#Unbenannter_Verlauf_11)}.cls-3{fill:#114a8b;stroke:#114a8b;stroke-linecap:round;stroke-miterlimit:10;stroke-width:6px}.cls-4{fill:url(#Unbenannter_Verlauf_13)}.cls-5{fill:url(#Unbenannter_Verlauf_3);filter:url(#drop-shadow-1)}</style><linearGradient id="Unbenannter_Verlauf_13" x1="96.09" x2="96.09" y1="0" y2="37.11" data-name="Unbenannter Verlauf 13" gradientUnits="userSpaceOnUse"><stop offset=".46" stop-color="#e09f00"/><stop offset="1" stop-color="#bb8500"/></linearGradient><linearGradient id="Unbenannter_Verlauf_90" x1="0" x2="192" y1="94.52" y2="94.52" data-name="Unbenannter Verlauf 90" gradientUnits="userSpaceOnUse"><stop offset="0" stop-color="#ffe28e"/><stop offset="1" stop-color="#ffcf48"/></linearGradient><linearGradient id="Unbenannter_Verlauf_11" x1="19.35" x2="177.44" y1="19.25" y2="177.35" data-name="Unbenannter Verlauf 11" gradientUnits="userSpaceOnUse"><stop offset="0" stop-color="#ffd65e"/><stop offset=".26" stop-color="#fed45a"/><stop offset=".46" stop-color="#fdd151"/><stop offset=".64" stop-color="#fccb40"/><stop offset=".81" stop-color="#f9c229"/><stop offset=".97" stop-color="#f6b70c"/><stop offset="1" stop-color="#f6b505"/></linearGradient><linearGradient id="Unbenannter_Verlauf_3" x1="62.84" x2="124.72" y1="101.18" y2="189.57" data-name="Unbenannter Verlauf 3" gradientUnits="userSpaceOnUse"><stop offset="0" stop-color="#1391dd"/><stop offset=".28" stop-color="#118cd8"/><stop offset=".6" stop-color="#0b7dcc"/><stop offset=".94" stop-color="#0166b7"/><stop offset="1" stop-color="#0062b4"/></linearGradient><filter id="drop-shadow-1" width="157" height="85" x="18.11" y="97.85" filterUnits="userSpaceOnUse"><feOffset dx="1" dy="-1"/><feGaussianBlur result="blur" stdDeviation="5"/><feFlood flood-color="#000" flood-opacity=".2"/><feComposite in2="blur" operator="in"/><feComposite in="SourceGraphic"/></filter></defs><g id="Ebene_1-2" data-name="Ebene 1"><path d="M.18,37.11V8.33C.18,3.73,3.91,0,8.52,0h49.87c4.6,0,9.36,3.55,19.4,17.85h104.6c5.31,0,9.62,3.31,9.62,8.62v10.64H.18Z" class="cls-4"/><path d="M0,38.91c0-4.95,4.01-8.96,8.96-8.96h51.85c5.62,0,17.36-8.55,17.23-8.68-.11-.11,79.47-.04,105.69,0,4.57,0,8.27,3.71,8.27,8.28v129.69c0,4.75-3.85,8.6-8.6,8.6H8.77c-4.84,0-8.77-3.92-8.77-8.77V38.91Z" class="cls-1"/><path d="M0,42.6c0-5.32,4.32-9.64,9.64-9.64h51.17c5.62,0,17.36-8.55,17.23-8.68-.11-.11,79.47-.04,105.69,0,4.57,0,8.27,3.71,8.27,8.28v126.69c0,4.75-3.85,8.6-8.6,8.6H8.77c-4.84,0-8.77-3.92-8.77-8.77V42.6Z" class="cls-2"/><path d="M54.89,113.87h82.04c12.07,0,21.87,9.8,21.87,21.87v32.26H33.02v-32.26c0-12.07,9.8-21.87,21.87-21.87Z" class="cls-5"/><line x1="59.91" x2="131.4" y1="140.6" y2="140.6" class="cls-3"/></g></svg>